:SAMPLES-PER-SECOND 30
:FULLY-SPECIFIED
:DEGREES
110
root  34.80843972 36.5042679 -14.88147195 8.683693886 -9.328784943 4.249554634
lowerback  -6.995490074 -2.121998787 -1.346680284
upperback  -3.986109972 -2.315419912 -3.63699007
thorax  -0.2907029986 -0.9982897043 -3.147730112
lowerneck  2.418440104 -19.33349991 -13.4368
upperneck  2.537680149 -26.6432991 13.74269962
head  3.973050117 -13.22049999 4.568669796
lclavicle  0 -4.497500157e-015 -2.743230041e-014
lhumerus  -49.48550034 27.05999947 63.71770096
lradius  5.228657756e-007 -6.507048965e-006 30.9878006
lwrist  4.824992743e-007 -3.790274832e-007 -26.87890053
lhand  -4.401178415e-031 -36.64839935 -10.60620022
lfingers  90 7.125020027 -90
lthumb  94.68388691 -25.45208844 100.7937566
rclavicle  0 -4.497500157e-015 -2.743230041e-014
rhumerus  -24.30080032 -36.75329971 -1.620389819
rradius  -5.16745672e-007 2.214343908e-008 90.96839905
rwrist  -0.0001064338358 0.02890027687 -174.8890076
rhand  -1.770669225e-031 4.35255003 -6.058350086
rfingers  -90 -7.125020027 -90
rthumb  -84.33202646 -9.803057305 -59.76133789
rfemur  -13.69461536 17.11474609 11.68562508
rtibia  -1.487043977 -2.272999763 21.59285545
rfoot  0.3971778452 -23.94187355 -33.45732117
rtoes  4.139940128 19.58402002 -102.1854993
lfemur  -8.434773445 -16.37943459 -21.45534515
ltibia  2.523161411 -2.501406431 15.13011837
lfoot  1.209013224 -20.82674026 39.58836746
ltoes  -8.484978277 -18.17802515 -115.5569266
111
root  34.81387341 36.50294026 -14.87638519 8.687322617 -9.367387772 4.278004646
lowerback  -6.973095894 -2.122303724 -1.334097505
upperback  -3.989729881 -2.315662861 -3.670660019
thorax  -0.3089450002 -0.9978772402 -3.189059973
lowerneck  2.508599997 -19.31990051 -13.31599998
upperneck  2.388360023 -26.61509895 13.72299957
head  3.8917799 -13.21259975 4.573540211
lclavicle  0 -4.497500157e-015 -2.743230041e-014
lhumerus  -49.50350189 27.15699959 63.59159851
lradius  5.228657756e-007 -6.507048965e-006 30.92760086
lwrist  4.824992743e-007 -3.790274832e-007 -27.04990005
lhand  -4.401264094e-031 -36.64989853 -10.69419956
lfingers  90 7.125020027 -90
lthumb  94.70286272 -25.53851019 100.8032285
rclavicle  0 -4.497500157e-015 -2.743230041e-014
rhumerus  -23.36739922 -37.1053009 -1.409480453
rradius  -5.16745672e-007 2.214343908e-008 89.76950073
rwrist  -0.0001064338358 0.02899335325 -175.0130005
rhand  -1.771065158e-031 4.517710209 -5.952439785
rfingers  -90 -7.125020027 -90
rthumb  -84.23601832 -9.903200934 -59.59040488
rfemur  -13.69312096 17.1196785 11.63674831
rtibia  -1.485741854 -2.303822756 21.58562851
rfoot  0.406236589 -23.98374939 -33.41330719
rtoes  4.12918766 19.58620463 -102.1534222
lfemur  -8.391337395 -16.41814232 -21.53964424
ltibia  2.571075678 -2.546889305 15.07620525
lfoot  1.200722098 -20.7238903 39.59431458
ltoes  -8.482834951 -18.17899878 -115.5500565
112
root  34.82073987 36.50458929 -14.87242781 8.701893806 -9.419084549 4.301465511
lowerback  -6.954495907 -2.123867989 -1.330415368
upperback  -3.985120058 -2.315540314 -3.693609953
thorax  -0.3158249855 -0.9973945618 -3.214479923
lowerneck  2.520709991 -19.31030083 -13.26490021
upperneck  2.35187006 -26.59789848 13.71290016
head  3.868597031 -13.20583153 4.571805954
lclavicle  0 -4.497500157e-015 -2.743230041e-014
lhumerus  -49.51910019 27.23690033 63.50569916
lradius  5.228657756e-007 -6.507048965e-006 30.86219978
lwrist  4.824992743e-007 -3.790274832e-007 -27.16570091
lhand  -4.402459248e-031 -36.67079926 -10.71790028
lfingers  90 7.125020027 -90
lthumb  94.71760771 -25.56101271 100.8277603
rclavicle  0 -4.497500157e-015 -2.743230041e-014
rhumerus  -22.39710045 -37.31349945 -1.271881223
rradius  -5.16745672e-007 2.214343908e-008 88.68810272
rwrist  -0.0001064338358 0.02908658236 -174.4550018
rhand  -0 4.259829998 -5.772789955
rfingers  -90 -7.125020027 -90
rthumb  -84.20963152 -10.04506132 -59.82698361
rfemur  -13.70486641 17.08907318 11.58904552
rtibia  -1.488860965 -2.33774972 21.56928062
rfoot  0.4358772635 -24.01659775 -33.3128624
rtoes  4.137385143 19.58453966 -102.1778769
lfemur  -8.397228241 -16.44540215 -21.59000778
ltibia  2.590051174 -2.586620808 15.0703783
lfoot  1.214666605 -20.65508461 39.6411705
ltoes  -8.471400572 -18.18418778 -115.5134113
113
root  34.82787365 36.50766508 -14.86687397 8.733983994 -9.488641739 4.334916592
lowerback  -6.924170017 -2.124419928 -1.31763947
upperback  -3.96668005 -2.314739943 -3.72142005
thorax  -0.3182305098 -0.9967849851 -3.249449968
lowerneck  2.54437995 -19.29910088 -13.25249958
upperneck  2.311569691 -26.58440018 13.76900005
head  3.857559919 -13.19849968 4.591380119
lclavicle  0 -4.497500157e-015 -2.743230041e-014
lhumerus  -49.50690079 27.46339989 63.31079865
lradius  5.228657756e-007 -6.507048965e-006 30.71729851
lwrist  4.824992743e-007 -3.790274832e-007 -27.40110016
lhand  -0 -36.64609909 -10.67959976
lfingers  90 7.125020027 -90
lthumb  94.69805158 -25.52427044 100.7978726
rclavicle  0 -4.497500157e-015 -2.743230041e-014
rhumerus  -21.48990059 -37.5177002 -1.099621058
rradius  -5.16745672e-007 2.214343908e-008 87.56710052
rwrist  -0.0001064338358 0.02917996608 -174.2089996
rhand  -1.770169652e-031 4.134659767 -5.91203022
rfingers  -90 -7.125020027 -90
rthumb  -84.31228334 -9.918152404 -59.96177989
rfemur  -13.74424839 17.04751968 11.5212822
rtibia  -1.493691087 -2.391593695 21.55811501
rfoot  0.4490983486 -24.07350159 -33.22940826
rtoes  4.145581786 19.5828714 -102.2023311
lfemur  -8.435907364 -16.40974617 -21.6394825
ltibia  2.606253862 -2.613032818 15.07259941
lfoot  1.234538317 -20.62147331 39.66452789
ltoes  -8.464479844 -18.18732424 -115.4912365
114
root  34.83497439 36.51016416 -14.86187432 8.759039879 -9.546761513 4.365319252
lowerback  -6.895899296 -2.122189999 -1.32679987
upperback  -3.953949928 -2.312479973 -3.737730026
thorax  -0.317772001 -0.9959629774 -3.260279894
lowerneck  2.57329011 -19.2968998 -13.25109959
upperneck  2.280970335 -26.58429718 13.81700039
head  3.850539923 -13.19890022 4.608290195
lclavicle  0 -4.497500157e-015 -2.743230041e-014
lhumerus  -49.52190018 27.51910019 63.24470139
lradius  5.228657756e-007 -6.507048965e-006 30.69910049
lwrist  4.824992743e-007 -3.790274832e-007 -27.50169945
lhand  -4.400852762e-031 -36.6427002 -10.64449978
lfingers  90 7.125020027 -90
lthumb  94.68919206 -25.48996077 100.791116
rclavicle  0 -4.497500157e-015 -2.743230041e-014
rhumerus  -20.56500053 -37.88400269 -0.9625970125
rradius  -5.16745672e-007 2.214343908e-008 86.30180359
rwrist  -0.0001064338358 0.02927350998 -174.3240051
rhand  -0 4.397830009 -5.803209782
rfingers  -90 -7.125020027 -90
rthumb  -84.18997383 -10.02578989 -59.69453654
rfemur  -13.77399826 16.96269798 11.46213436
rtibia  -1.497522473 -2.442531586 21.54827881
rfoot  0.4713155925 -24.1325016 -33.10826111
rtoes  4.164633308 19.57898044 -102.2591779
lfemur  -8.461728096 -16.42705727 -21.69245911
ltibia  2.621752977 -2.656254053 15.07172775
lfoot  1.240630388 -20.5477829 39.68972778
ltoes  -8.480561392 -18.18003123 -115.5427693
115
root  34.84225536 36.51177714 -14.85718554 8.775838852 -9.618577003 4.396030903
lowerback  -6.895570278 -2.108069897 -1.302590013
upperback  -3.947870016 -2.293790102 -3.768949986
thorax  -0.3131960034 -0.9869480133 -3.305219889
lowerneck  2.500890017 -19.34110069 -13.31639957
upperneck  2.451929808 -26.65670013 13.82520008
head  3.932529926 -13.22780037 4.590260029
lclavicle  0 -4.497500157e-015 -2.743230041e-014
lhumerus  -49.54679871 27.54269981 63.18470001
lradius  5.228657756e-007 -6.507048965e-006 30.68119812
lwrist  4.824992743e-007 -3.790274832e-007 -27.54129982
lhand  -4.415756863e-031 -36.90190125 -10.64080048
lfingers  90 7.125020027 -90
lthumb  94.80967357 -25.47720897 101.0679183
rclavicle  0 -4.497500157e-015 -2.743230041e-014
rhumerus  -19.74670029 -38.11560059 -0.8325846791
rradius  -5.16745672e-007 2.214343908e-008 85.22730255
rwrist  -0.0001064338358 0.02936722897 -174.1150055
rhand  -1.770763393e-031 4.392399788 -5.688370228
rfingers  -90 -7.125020027 -90
rthumb  -84.13249605 -10.12464082 -59.68947687
rfemur  -13.80417156 16.92577362 11.40582848
rtibia  -1.499760389 -2.475104094 21.55500221
rfoot  0.4956023693 -24.16601753 -32.98820877
rtoes  4.156970481 19.5805477 -102.2363119
lfemur  -8.494535446 -16.53150368 -21.74298668
ltibia  2.620670557 -2.756776333 15.09379292
lfoot  1.223002195 -20.35443878 39.72735977
ltoes  -8.470718292 -18.18449713 -115.511225
116
root  34.84932306 36.51105625 -14.85420738 8.780630112 -9.689710617 4.427909374
lowerback  -6.908949375 -2.090329885 -1.28134048
upperback  -3.939239979 -2.270580053 -3.784849882
thorax  -0.2973490059 -0.9758459926 -3.332839966
lowerneck  2.396359921 -19.39859962 -13.48110008
upperneck  2.667569876 -26.75520134 13.89120007
head  4.05768013 -13.26669979 4.586830139
lclavicle  0 -4.497500157e-015 -2.743230041e-014
lhumerus  -49.54270172 27.5182991 63.2098999
lradius  5.228657756e-007 -6.507048965e-006 30.6753006
lwrist  4.824992743e-007 -3.790274832e-007 -27.50320053
lhand  -4.412612917e-031 -36.84749985 -10.31579971
lfingers  90 7.125020027 -90
lthumb  94.71563725 -25.16011269 100.9804015
rclavicle  0 -4.497500157e-015 -2.743230041e-014
rhumerus  -18.78009987 -38.31800079 -0.7715665102
rradius  -5.16745672e-007 2.214343908e-008 83.97920227
rwrist  -0.0001064338358 0.02946111746 -173.6499939
rhand  -0 4.399310112 -5.553919792
rfingers  -90 -7.125020027 -90
rthumb  -84.0617661 -10.24101557 -59.67051149
rfemur  -13.83178711 16.87934303 11.35472393
rtibia  -1.497161269 -2.519782543 21.57535744
rfoot  0.5120717883 -24.2370224 -32.86001587
rtoes  4.159773165 19.57997482 -102.2446749
lfemur  -8.457909584 -16.59170914 -21.81702042
ltibia  2.665700674 -2.804498434 15.03826904
lfoot  1.249105573 -20.24487877 39.84737778
ltoes  -8.505497192 -18.16868879 -115.6227148
117
root  34.85507214 36.50829285 -14.84894339 8.778299332 -9.750871658 4.43569231
lowerback  -6.896460056 -2.078510046 -1.272489548
upperback  -3.938509941 -2.253910065 -3.819259882
thorax  -0.3045589924 -0.9673209786 -3.372090101
lowerneck  2.371920109 -19.43610001 -13.47879982
upperneck  2.708770037 -26.80719948 13.86730003
head  4.076920033 -13.29069996 4.568590164
lclavicle  0 -4.497500157e-015 -2.743230041e-014
lhumerus  -49.56230164 27.56609917 63.14459991
lradius  5.228657756e-007 -6.507048965e-006 30.64539909
lwrist  4.824992743e-007 -3.790274832e-007 -27.58690071
lhand  -4.40773468e-031 -36.76279831 -10.4211998
lfingers  90 7.125020027 -90
lthumb  94.69857074 -25.26647548 100.899428
rclavicle  0 -4.497500157e-015 -2.743230041e-014
rhumerus  -17.9015007 -38.52289963 -0.765047729
rradius  -5.16745672e-007 2.214343908e-008 82.92749786
rwrist  -0.0001064338358 0.02955519035 -172.8849945
rhand  -1.770509403e-031 4.284060001 -5.584770203
rfingers  -90 -7.125020027 -90
rthumb  -84.10736932 -10.20873907 -59.78628384
rfemur  -13.82402897 16.87997246 11.32063389
rtibia  -1.483878136 -2.55468297 21.54232025
rfoot  0.5310366154 -24.29617119 -32.80506516
rtoes  4.142246312 19.58355069 -102.1923796
lfemur  -8.452273369 -16.61879349 -21.84658623
ltibia  2.674678564 -2.841137886 15.04165459
lfoot  1.263122559 -20.18460655 39.90546036
ltoes  -8.499914004 -18.17123199 -115.6048106
